<svg width="1080" height="1080" viewBox="0 0 1080 1080" fill="none" xmlns="http://www.w3.org/2000/svg">
<path d="M199.487 451.443C205.749 472.534 245.5 475.349 260.971 459.707C280.755 439.704 305.672 425.549 335.722 417.24C367.949 408.33 399.017 407.944 428.926 416.082C458.835 424.22 485.047 440.179 507.56 463.957C529.953 487.3 546.207 517.262 556.321 553.844C566.316 589.991 567.823 624.265 560.842 656.667C553.862 689.069 539.474 716.721 517.679 739.624C496.319 762.406 469.743 778.193 437.951 786.983C407.031 795.532 377.945 796.307 350.696 789.309C343.105 787.294 335.886 784.856 329.039 781.997C315.545 776.363 294.725 790.341 298.622 804.434C300.713 811.998 296.277 819.825 288.713 821.917L271.609 826.646C255.745 831.032 239.309 821.817 234.775 805.995L86.3419 288.023C81.7474 271.991 91.1115 255.288 107.186 250.844L109.071 250.323C124.828 245.966 141.172 255.027 145.825 270.699L199.487 451.443ZM495.569 570.642C488.103 543.641 476.157 521.629 459.731 504.606C443.304 487.583 424.283 476.434 402.666 471.16C381.485 465.765 359.79 466.138 337.579 472.279C315.804 478.3 297.058 489.343 281.342 505.408C265.94 520.917 255.408 540.472 249.744 564.071C244.396 587.115 245.394 611.919 252.739 638.485C260.205 665.486 272.211 687.716 288.758 705.174C305.62 722.077 324.701 733.443 346.003 739.273C367.619 744.548 389.315 744.175 411.09 738.154C433.301 732.013 452.107 721.188 467.508 705.678C483.224 689.613 493.757 670.059 499.105 647.015C504.334 623.536 503.155 598.079 495.569 570.642Z" fill="white"/>
<path d="M556.494 577.709C571.228 542.731 591.199 515.107 616.407 494.837C641.79 474.15 669.836 461.694 700.543 457.468C731.666 453.418 762.427 457.795 792.825 470.599C822.806 483.228 846.113 500.645 862.745 522.85C875.694 540.138 914.833 542.989 924.041 523.451L925.687 519.959C930.818 509.071 943.622 504.166 954.714 508.838L965.285 513.291C980.318 519.623 987.537 536.806 981.536 551.974L846.075 894.399C839.885 910.046 822.04 917.543 806.533 911.011L796.903 906.954C785.658 902.218 779.58 889.958 782.619 878.141C788.461 855.422 758.079 832.259 734.955 836.198C732.957 836.539 730.936 836.849 728.893 837.129C701.386 840.742 672.85 836.321 643.285 823.867C612.887 811.063 588.561 791.992 570.308 766.652C552.054 741.313 541.549 712.128 538.792 679.098C536.035 646.067 541.936 612.271 556.494 577.709ZM846.051 700.413C856.926 674.596 861.193 649.917 858.851 626.377C856.509 602.837 848.49 582.299 834.794 564.763C821.69 546.986 804.52 533.625 783.283 524.68C762.046 515.734 740.578 512.575 718.879 515.202C697.181 517.829 677.092 526.527 658.613 541.297C640.135 556.067 625.458 576.361 614.583 602.178C603.533 628.412 599.091 653.507 601.257 677.463C603.599 701.003 611.322 721.661 624.426 739.438C637.705 756.799 654.964 769.952 676.2 778.897C697.437 787.843 718.905 791.002 740.604 788.375C762.894 785.507 783.279 776.688 801.758 761.919C820.412 746.732 835.176 726.231 846.051 700.413Z" fill="white"/>
<path d="M359.131 705.924C347.383 705.924 337.442 701.858 329.309 693.725C321.176 685.591 317.109 675.651 317.109 663.903C317.109 652.155 321.176 642.215 329.309 634.081C337.442 625.948 347.383 621.882 359.131 621.882C370.427 621.882 379.915 625.948 387.597 634.081C395.73 642.215 399.797 652.155 399.797 663.903C399.797 675.651 395.73 685.591 387.597 693.725C379.915 701.858 370.427 705.924 359.131 705.924Z" fill="white"/>
<path d="M685.757 733.202C674.01 733.202 664.069 729.136 655.936 721.003C647.803 712.87 643.736 702.929 643.736 691.181C643.736 679.433 647.803 669.493 655.936 661.359C664.069 653.226 674.01 649.16 685.757 649.16C697.053 649.16 706.542 653.226 714.223 661.359C722.357 669.493 726.423 679.433 726.423 691.181C726.423 702.929 722.357 712.87 714.223 721.003C706.542 729.136 697.053 733.202 685.757 733.202Z" fill="white"/>
</svg>
