<svg width="1080" height="1080" viewBox="0 0 1080 1080" fill="none" xmlns="http://www.w3.org/2000/svg">
<path d="M201.639 460.234C207.96 481.525 248.088 484.367 263.705 468.577C283.677 448.384 308.831 434.094 339.165 425.707C371.698 416.712 403.061 416.323 433.253 424.538C463.446 432.753 489.905 448.863 512.632 472.867C535.238 496.431 551.645 526.677 561.856 563.606C571.945 600.095 573.466 634.695 566.42 667.403C559.373 700.112 544.849 728.027 522.847 751.146C501.285 774.145 474.457 790.081 442.364 798.954C411.15 807.584 381.789 808.367 354.281 801.302C346.618 799.268 339.331 796.808 332.418 793.921C318.797 788.233 297.78 802.344 301.714 816.571C303.825 824.207 299.346 832.108 291.711 834.219L274.173 839.068C258.309 843.455 241.873 834.24 237.339 818.418L87.3419 294.989C82.7475 278.957 92.1115 262.254 108.186 257.81L110.635 257.133C126.392 252.776 142.736 261.838 147.389 277.51L201.639 460.234ZM500.527 580.563C492.991 553.306 480.932 531.085 464.35 513.901C447.767 496.717 428.566 485.462 406.744 480.138C385.362 474.692 363.461 475.069 341.04 481.268C319.058 487.345 300.135 498.493 284.269 514.711C268.722 530.367 258.09 550.107 252.372 573.93C246.973 597.192 247.981 622.231 255.396 649.049C262.932 676.306 275.052 698.746 291.756 716.37C308.778 733.433 328.04 744.907 349.543 750.793C371.365 756.117 393.266 755.74 415.248 749.663C437.669 743.463 456.653 732.536 472.201 716.879C488.066 700.662 498.698 680.922 504.098 657.66C509.375 633.959 508.185 608.259 500.527 580.563Z" fill="url(#paint0_linear_8_142)"/>
<path d="M562.03 587.697C576.903 552.387 597.064 524.501 622.511 504.039C648.135 483.156 676.446 470.582 707.444 466.316C738.863 462.228 769.915 466.646 800.601 479.572C830.867 492.321 854.395 509.903 871.185 532.318C884.257 549.77 923.766 552.648 933.062 532.924L934.723 529.399C939.903 518.408 952.828 513.457 964.025 518.173L973.958 522.357C989.381 528.854 996.506 546.712 989.793 562.041L849.306 882.793C842.725 897.818 825.297 904.772 810.181 898.404L792.76 891.066C785.445 887.985 782.093 879.493 785.331 872.245C791.34 858.796 772.145 841.418 757.914 845.219C750.935 847.083 743.652 848.535 736.063 849.576C708.296 853.223 679.489 848.76 649.644 836.189C618.958 823.263 594.401 804.011 575.975 778.431C557.548 752.851 546.943 723.39 544.16 690.047C541.377 656.703 547.334 622.587 562.03 587.697ZM854.332 711.564C865.31 685.502 869.617 660.589 867.253 636.826C864.889 613.063 856.794 592.331 842.969 574.629C829.74 556.683 812.407 543.195 790.969 534.165C769.531 525.135 747.859 521.945 725.955 524.597C704.05 527.249 683.771 536.03 665.117 550.94C646.464 565.85 631.648 586.336 620.67 612.398C609.515 638.88 605.031 664.213 607.218 688.396C609.582 712.159 617.378 733.014 630.606 750.959C644.012 768.484 661.433 781.762 682.871 790.792C704.31 799.823 725.981 803.012 747.885 800.36C770.387 797.465 790.965 788.562 809.619 773.652C828.45 758.322 843.354 737.626 854.332 711.564Z" fill="url(#paint1_linear_8_142)"/>
<path d="M362.796 717.127C350.936 717.127 340.902 713.022 332.691 704.812C324.481 696.602 320.376 686.567 320.376 674.708C320.376 662.848 324.481 652.814 332.691 644.603C340.902 636.393 350.936 632.288 362.796 632.288C374.199 632.288 383.777 636.393 391.532 644.603C399.742 652.814 403.847 662.848 403.847 674.708C403.847 686.567 399.742 696.602 391.532 704.812C383.777 713.022 374.199 717.127 362.796 717.127Z" fill="url(#paint2_linear_8_142)"/>
<path d="M675.369 748.385C663.51 748.385 653.475 744.28 645.265 736.069C637.055 727.859 632.95 717.824 632.95 705.965C632.95 694.106 637.055 684.071 645.265 675.861C653.475 667.65 663.51 663.545 675.369 663.545C686.773 663.545 696.351 667.65 704.105 675.861C712.316 684.071 716.421 694.106 716.421 705.965C716.421 717.824 712.316 727.859 704.105 736.069C696.351 744.28 686.773 748.385 675.369 748.385Z" fill="url(#paint3_linear_8_142)"/>
<defs>
<linearGradient id="paint0_linear_8_142" x1="265.046" y1="214.44" x2="427.773" y2="802.988" gradientUnits="userSpaceOnUse">
<stop/>
<stop offset="1" stop-color="#009DFF"/>
</linearGradient>
<linearGradient id="paint1_linear_8_142" x1="824.74" y1="459.503" x2="663.596" y2="842.065" gradientUnits="userSpaceOnUse">
<stop/>
<stop offset="1" stop-color="#009DFF"/>
</linearGradient>
<linearGradient id="paint2_linear_8_142" x1="362.111" y1="632.288" x2="362.111" y2="717.127" gradientUnits="userSpaceOnUse">
<stop/>
<stop offset="1" stop-color="#009DFF"/>
</linearGradient>
<linearGradient id="paint3_linear_8_142" x1="674.685" y1="663.545" x2="674.685" y2="748.385" gradientUnits="userSpaceOnUse">
<stop/>
<stop offset="1" stop-color="#009DFF"/>
</linearGradient>
</defs>
</svg>
