<svg width="1080" height="1080" viewBox="0 0 1080 1080" fill="none" xmlns="http://www.w3.org/2000/svg">
<path d="M195.499 458.743C201.916 480.356 242.653 483.241 258.507 467.211C278.782 446.713 304.317 432.206 335.111 423.692C368.137 414.56 399.976 414.165 430.626 422.505C461.277 430.845 488.138 447.199 511.21 471.566C534.158 495.488 550.815 526.193 561.18 563.682C571.422 600.725 572.966 635.849 565.813 669.054C558.659 702.259 543.915 730.597 521.579 754.067C499.69 777.415 472.455 793.592 439.875 802.6C408.188 811.361 378.382 812.156 350.456 804.984C342.677 802.919 335.279 800.421 328.262 797.491C314.435 791.717 293.098 806.042 297.092 820.484C299.235 828.236 294.689 836.257 286.937 838.4L268.699 843.443C252.835 847.829 236.399 838.614 231.865 822.792L79.3419 290.55C74.7474 274.517 84.1115 257.815 100.186 253.37L103.545 252.442C119.302 248.085 135.646 257.146 140.299 272.818L195.499 458.743ZM498.921 580.896C491.271 553.226 479.028 530.668 462.195 513.223C445.361 495.778 425.868 484.353 403.715 478.948C382.009 473.42 359.776 473.802 337.014 480.095C314.699 486.265 295.489 497.582 279.383 514.045C263.6 529.939 252.806 549.978 247.002 574.163C241.521 597.777 242.544 623.197 250.071 650.421C257.722 678.092 270.026 700.873 286.983 718.764C304.263 736.085 323.818 747.733 345.647 753.708C367.799 759.113 390.033 758.731 412.348 752.561C435.109 746.268 454.382 735.174 470.165 719.28C486.271 702.817 497.064 682.778 502.545 659.163C507.903 635.102 506.695 609.013 498.921 580.896Z" fill="#0099FF"/>
<path d="M561.357 588.139C576.456 552.294 596.922 523.984 622.755 503.212C648.768 482.012 677.509 469.248 708.977 464.917C740.872 460.767 772.395 465.252 803.547 478.374C834.272 491.316 858.156 509.164 875.201 531.92C888.471 549.636 928.58 552.558 938.017 532.535L939.703 528.957C944.961 517.799 958.082 512.773 969.45 517.561L979.959 521.987C995.381 528.484 1002.51 546.342 995.793 561.671L852.811 888.121C846.23 903.146 828.802 910.1 813.685 903.733L795.587 896.11C788.161 892.982 784.758 884.36 788.045 877.003C794.145 863.35 774.659 845.708 760.212 849.567C753.127 851.459 745.733 852.934 738.03 853.99C709.841 857.692 680.598 853.162 650.3 840.399C619.148 827.278 594.219 807.733 575.513 781.766C556.807 755.798 546.041 725.89 543.216 692.041C540.391 658.192 546.438 623.558 561.357 588.139ZM858.093 713.885C869.237 687.427 873.61 662.137 871.21 638.013C868.81 613.89 860.592 592.843 846.557 574.872C833.128 556.654 815.532 542.962 793.768 533.795C772.005 524.628 750.005 521.39 727.768 524.082C705.532 526.774 684.945 535.688 666.008 550.824C647.071 565.96 632.031 586.757 620.886 613.214C609.562 640.098 605.01 665.815 607.23 690.366C609.63 714.489 617.544 735.66 630.973 753.877C644.582 771.668 662.268 785.147 684.031 794.315C705.795 803.482 727.795 806.719 750.031 804.027C772.875 801.088 793.765 792.051 812.701 776.915C831.818 761.352 846.948 740.342 858.093 713.885Z" fill="#0099FF"/>
<path d="M359.101 719.533C347.062 719.533 336.875 715.365 328.54 707.03C320.205 698.695 316.038 688.509 316.038 676.469C316.038 664.43 320.205 654.243 328.54 645.908C336.875 637.574 347.062 633.406 359.101 633.406C370.677 633.406 380.401 637.574 388.272 645.908C396.607 654.243 400.775 664.43 400.775 676.469C400.775 688.509 396.607 698.695 388.272 707.03C380.401 715.365 370.677 719.533 359.101 719.533Z" fill="#0099FF"/>
<path d="M676.415 751.264C664.376 751.264 654.189 747.096 645.854 738.761C637.519 730.427 633.352 720.24 633.352 708.201C633.352 696.161 637.519 685.974 645.854 677.64C654.189 669.305 664.376 665.137 676.415 665.137C687.991 665.137 697.715 669.305 705.586 677.64C713.921 685.974 718.089 696.161 718.089 708.201C718.089 720.24 713.921 730.427 705.586 738.761C697.715 747.096 687.991 751.264 676.415 751.264Z" fill="#0099FF"/>
</svg>
